<?xml version="1.0" encoding="UTF-8" standalone="no"?>
<!-- Generator: Adobe Illustrator 16.0.0, SVG Export Plug-In . SVG Version: 6.00 Build 0)  -->

<svg
   version="1.1"
   id="Layer_1"
   x="0px"
   y="0px"
   width="580px"
   height="580px"
   viewBox="0 0 580 580"
   enable-background="new 0 0 580 580"
   xml:space="preserve"
   sodipodi:docname="CompassRose_rb_custom.svg"
   inkscape:version="1.3.2 (091e20ef0f, 2023-11-25)"
   xmlns:inkscape="http://www.inkscape.org/namespaces/inkscape"
   xmlns:sodipodi="http://sodipodi.sourceforge.net/DTD/sodipodi-0.dtd"
   xmlns="http://www.w3.org/2000/svg"
   xmlns:svg="http://www.w3.org/2000/svg"><defs
   id="defs1" /><sodipodi:namedview
   id="namedview1"
   pagecolor="#ffffff"
   bordercolor="#000000"
   borderopacity="0.25"
   inkscape:showpageshadow="2"
   inkscape:pageopacity="0.0"
   inkscape:pagecheckerboard="true"
   inkscape:deskcolor="#d1d1d1"
   inkscape:zoom="0.70172415"
   inkscape:cx="329.18918"
   inkscape:cy="468.8452"
   inkscape:window-width="1920"
   inkscape:window-height="1012"
   inkscape:window-x="3840"
   inkscape:window-y="0"
   inkscape:window-maximized="1"
   inkscape:current-layer="layer2"
   inkscape:clip-to-page="false" />

<g
   inkscape:groupmode="layer"
   id="layer3"
   inkscape:label="bg"><rect
     style="fill:#4f7288;fill-opacity:0.56265622;stroke:#404040;stroke-opacity:0.63098198;opacity:0.55497614;stroke-width:3.4;stroke-dasharray:none"
     id="rect1"
     width="580"
     height="580"
     x="0"
     y="0" /></g><g
   inkscape:groupmode="layer"
   id="layer2"
   inkscape:label="watermark"><g
     id="text1"
     style="font-weight:bold;font-size:48px;font-family:'DejaVu Sans';-inkscape-font-specification:'DejaVu Sans, Bold';fill:#cccccc;fill-opacity:0.12566666;stroke:#ffffff;stroke-opacity:0.630982"
     aria-label="Rocky Branches, LLC&#10;2024"><path
       style="text-align:end;text-anchor:end;fill:#cccccc;fill-opacity:0.12566666"
       d="m 26.011719,454.14252 q 2.835937,0 4.054687,-1.05469 1.242188,-1.05469 1.242188,-3.46875 0,-2.39063 -1.242188,-3.42188 -1.21875,-1.03125 -4.054687,-1.03125 h -3.796875 v 8.97657 z m -3.796875,6.23437 v 13.24219 h -9.023438 v -34.99219 h 13.78125 q 6.914063,0 10.125,2.32031 3.234375,2.32032 3.234375,7.33594 0,3.46875 -1.6875,5.69531 -1.664062,2.22657 -5.039062,3.28125 1.851562,0.42188 3.304687,1.92188 1.476563,1.47656 2.976563,4.5 l 4.898437,9.9375 h -9.609375 l -4.265625,-8.69531 q -1.289062,-2.625 -2.625,-3.58594 -1.3125,-0.96094 -3.515625,-0.96094 z m 40.054687,-7.64062 q -2.789062,0 -4.265625,2.01562 -1.453125,1.99219 -1.453125,5.76563 0,3.77343 1.453125,5.78906 1.476563,1.99219 4.265625,1.99219 2.742188,0 4.195313,-1.99219 1.453125,-2.01563 1.453125,-5.78906 0,-3.77344 -1.453125,-5.76563 -1.453125,-2.01562 -4.195313,-2.01562 z m 0,-6 q 6.773438,0 10.570313,3.65625 3.820312,3.65625 3.820312,10.125 0,6.46875 -3.820312,10.125 -3.796875,3.65625 -10.570313,3.65625 -6.796875,0 -10.640625,-3.65625 -3.820312,-3.65625 -3.820312,-10.125 0,-6.46875 3.820312,-10.125 3.84375,-3.65625 10.640625,-3.65625 z m 41.695309,1.45312 v 6.84375 q -1.71093,-1.17187 -3.44531,-1.73437 -1.710936,-0.5625 -3.562499,-0.5625 -3.515625,0 -5.484375,2.0625 -1.945312,2.03906 -1.945312,5.71875 0,3.67968 1.945312,5.74218 1.96875,2.03907 5.484375,2.03907 1.96875,0 3.726559,-0.58594 1.78125,-0.58594 3.28125,-1.73438 v 6.86719 q -1.96875,0.72656 -4.007809,1.07813 -2.015625,0.375 -4.054687,0.375 -7.101563,0 -11.109375,-3.63282 -4.007813,-3.65625 -4.007813,-10.14843 0,-6.49219 4.007813,-10.125 4.007812,-3.65625 11.109375,-3.65625 2.0625,0 4.054687,0.375 2.015629,0.35156 4.007809,1.07812 z m 7.24219,-11.03906 h 8.39063 v 19.85156 l 9.65625,-9.63281 h 9.75 l -12.82032,12.04687 13.82813,14.20313 h -10.17188 l -10.24218,-10.94531 v 10.94531 h -8.39063 z m 28.47656,10.21875 h 8.39063 l 7.05469,17.8125 6,-17.8125 h 8.39062 l -11.03906,28.73437 q -1.66406,4.38282 -3.89063,6.11719 -2.20312,1.75781 -5.83593,1.75781 h -4.85157 v -5.50781 h 2.625 q 2.13282,0 3.09375,-0.67969 0.98438,-0.67968 1.52344,-2.4375 l 0.23438,-0.72656 z m 65.83594,4.80469 q 2.13281,0 3.23438,-0.9375 1.10156,-0.9375 1.10156,-2.76563 0,-1.80469 -1.10156,-2.74219 -1.10157,-0.96093 -3.23438,-0.96093 h -4.99219 v 7.40625 z m 0.30469,15.30468 q 2.71875,0 4.07812,-1.14843 1.38282,-1.14844 1.38282,-3.46875 0,-2.27344 -1.35938,-3.39844 -1.35937,-1.14844 -4.10156,-1.14844 h -5.29688 v 9.16406 z m 8.39062,-12.58593 q 2.90625,0.84375 4.5,3.11718 1.59375,2.27344 1.59375,5.57813 0,5.0625 -3.42187,7.54687 -3.42188,2.48438 -10.40625,2.48438 h -14.97656 v -34.99219 h 13.54687 q 7.28906,0 10.54688,2.20313 3.28125,2.20312 3.28125,7.05468 0,2.55469 -1.19532,4.35938 -1.19531,1.78125 -3.46875,2.64844 z m 33,-0.375 q -1.10156,-0.51563 -2.20312,-0.75 -1.07813,-0.25782 -2.17969,-0.25782 -3.23437,0 -4.99219,2.08594 -1.73437,2.0625 -1.73437,5.92969 v 12.09375 h -8.39063 v -26.25 h 8.39063 v 4.3125 q 1.61719,-2.57813 3.70312,-3.75 2.10938,-1.19531 5.03907,-1.19531 0.42187,0 0.91406,0.0469 0.49219,0.0234 1.42969,0.14063 z m 15.9375,7.28906 q -2.625,0 -3.96093,0.89062 -1.3125,0.89063 -1.3125,2.625 0,1.59375 1.05468,2.50782 1.07813,0.89062 2.97657,0.89062 2.36718,0 3.98437,-1.6875 1.61719,-1.71094 1.61719,-4.26562 v -0.96094 z m 12.82032,-3.16406 v 14.97656 h -8.46094 v -3.89063 q -1.6875,2.39063 -3.79688,3.49219 -2.10937,1.07813 -5.13281,1.07813 -4.07812,0 -6.63281,-2.36719 -2.53125,-2.39063 -2.53125,-6.1875 0,-4.61719 3.16406,-6.77344 3.1875,-2.15625 9.98438,-2.15625 h 4.94531 v -0.65625 q 0,-1.99219 -1.57031,-2.90625 -1.57032,-0.9375 -4.89844,-0.9375 -2.69531,0 -5.01563,0.53906 -2.32031,0.53907 -4.3125,1.61719 v -6.39844 q 2.69532,-0.65625 5.41407,-0.98437 2.71875,-0.35156 5.4375,-0.35156 7.10156,0 10.24218,2.8125 3.16407,2.78906 3.16407,9.09375 z m 34.19531,-1.00782 v 15.98438 h -8.4375 v -2.60156 -9.63282 q 0,-3.39843 -0.16406,-4.6875 -0.14063,-1.28906 -0.51563,-1.89843 -0.49219,-0.82032 -1.33594,-1.26563 -0.84375,-0.46875 -1.92187,-0.46875 -2.625,0 -4.125,2.03906 -1.5,2.01563 -1.5,5.60157 v 12.91406 h -8.39063 v -26.25 h 8.39063 v 3.84375 q 1.89844,-2.29688 4.03125,-3.375 2.13281,-1.10156 4.71094,-1.10156 4.54687,0 6.89062,2.78906 2.36719,2.78906 2.36719,8.10937 z m 28.99219,-9.44531 v 6.84375 q -1.71094,-1.17187 -3.44532,-1.73437 -1.71093,-0.5625 -3.5625,-0.5625 -3.51562,0 -5.48437,2.0625 -1.94531,2.03906 -1.94531,5.71875 0,3.67968 1.94531,5.74218 1.96875,2.03907 5.48437,2.03907 1.96875,0 3.72657,-0.58594 1.78125,-0.58594 3.28125,-1.73438 v 6.86719 q -1.96875,0.72656 -4.00782,1.07813 -2.01562,0.375 -4.05468,0.375 -7.10157,0 -11.10938,-3.63282 -4.00781,-3.65625 -4.00781,-10.14843 0,-6.49219 4.00781,-10.125 4.00781,-3.65625 11.10938,-3.65625 2.0625,0 4.05468,0.375 2.01563,0.35156 4.00782,1.07812 z m 33.63281,9.44531 v 15.98438 h -8.4375 v -2.60156 -9.58594 q 0,-3.44531 -0.16406,-4.73438 -0.14063,-1.28906 -0.51563,-1.89843 -0.49219,-0.82032 -1.33594,-1.26563 -0.84375,-0.46875 -1.92187,-0.46875 -2.625,0 -4.125,2.03906 -1.5,2.01563 -1.5,5.60157 v 12.91406 h -8.39063 v -36.46875 h 8.39063 v 14.0625 q 1.89844,-2.29688 4.03125,-3.375 2.13281,-1.10156 4.71094,-1.10156 4.54687,0 6.89062,2.78906 2.36719,2.78906 2.36719,8.10937 z m 33.98437,2.78907 v 2.39062 h -19.61718 q 0.30468,2.95313 2.13281,4.42969 1.82812,1.47656 5.10937,1.47656 2.64844,0 5.41407,-0.77344 2.78906,-0.79687 5.71875,-2.39062 v 6.46875 q -2.97657,1.125 -5.95313,1.6875 -2.97656,0.58594 -5.95312,0.58594 -7.125,0 -11.08594,-3.60938 -3.9375,-3.63281 -3.9375,-10.17187 0,-6.42188 3.86719,-10.10157 3.89062,-3.67968 10.6875,-3.67968 6.1875,0 9.89062,3.72656 3.72656,3.72656 3.72656,9.96094 z m -8.625,-2.78907 q 0,-2.39062 -1.40625,-3.84375 -1.38281,-1.47656 -3.63281,-1.47656 -2.4375,0 -3.96094,1.38281 -1.52343,1.35938 -1.89843,3.9375 z m 35.48438,-9.44531 v 6.375 q -2.69531,-1.125 -5.20313,-1.6875 -2.50781,-0.5625 -4.73437,-0.5625 -2.39063,0 -3.5625,0.60938 -1.14844,0.58593 -1.14844,1.82812 0,1.00781 0.86719,1.54688 0.89062,0.53906 3.16406,0.79687 l 1.47656,0.21094 q 6.44532,0.82031 8.67188,2.69531 2.22656,1.875 2.22656,5.88281 0,4.19532 -3.09375,6.30469 -3.09375,2.10938 -9.23437,2.10938 -2.60157,0 -5.39063,-0.42188 -2.76562,-0.39844 -5.69531,-1.21875 v -6.375 q 2.50781,1.21875 5.13281,1.82813 2.64844,0.60937 5.36719,0.60937 2.46094,0 3.70312,-0.67969 1.24219,-0.67968 1.24219,-2.01562 0,-1.125 -0.86719,-1.66406 -0.84375,-0.5625 -3.39843,-0.86719 l -1.47657,-0.1875 q -5.60156,-0.70313 -7.85156,-2.60156 -2.25,-1.89844 -2.25,-5.76563 0,-4.17187 2.85938,-6.1875 2.85937,-2.01562 8.76562,-2.01562 2.32031,0 4.875,0.35156 2.55469,0.35156 5.55469,1.10156 z m 8.92969,16.35938 h 8.4375 v 7.14843 l -5.78907,8.74219 h -4.99218 l 2.34375,-8.74219 z m 34.45312,-25.92188 h 9.02344 v 28.17188 h 15.84375 v 6.82031 h -24.86719 z m 30.58594,0 h 9.02344 v 28.17188 h 15.84375 v 6.82031 h -24.86719 z m 58.33594,33.07031 q -2.48438,1.28907 -5.17969,1.94532 -2.69531,0.65625 -5.625,0.65625 -8.74219,0 -13.85156,-4.875 -5.10938,-4.89844 -5.10938,-13.26563 0,-8.39062 5.10938,-13.26562 5.10937,-4.89844 13.85156,-4.89844 2.92969,0 5.625,0.65625 2.69531,0.65625 5.17969,1.94531 v 7.24219 q -2.50782,-1.71094 -4.94532,-2.50781 -2.4375,-0.79688 -5.13281,-0.79688 -4.82812,0 -7.59375,3.09375 -2.76562,3.09375 -2.76562,8.53125 0,5.41406 2.76562,8.50781 2.76563,3.09375 7.59375,3.09375 2.69531,0 5.13281,-0.79687 2.4375,-0.79688 4.94532,-2.50781 z"
       id="path1" /><path
       style="text-align:end;text-anchor:end;fill:#cccccc;fill-opacity:0.12566666"
       d="m 449.24609,526.98627 h 15.39844 v 6.63281 h -25.42969 v -6.63281 l 12.77344,-11.27344 q 1.71094,-1.54688 2.53125,-3.02344 0.82031,-1.47656 0.82031,-3.07031 0,-2.46094 -1.66406,-3.96094 -1.64062,-1.5 -4.38281,-1.5 -2.10938,0 -4.61719,0.91406 -2.50781,0.89063 -5.36719,2.67188 v -7.6875 q 3.04688,-1.00781 6.02344,-1.52344 2.97656,-0.53906 5.83594,-0.53906 6.28125,0 9.75,2.76562 3.49219,2.76563 3.49219,7.71094 0,2.85938 -1.47657,5.34375 -1.47656,2.46094 -6.21093,6.60938 z m 41.64844,-10.89844 q 0,-6.5625 -1.24219,-9.23438 -1.21875,-2.69531 -4.125,-2.69531 -2.90625,0 -4.14843,2.69531 -1.24219,2.67188 -1.24219,9.23438 0,6.63281 1.24219,9.35156 1.24218,2.71875 4.14843,2.71875 2.88282,0 4.125,-2.71875 1.24219,-2.71875 1.24219,-9.35156 z m 9.02344,0.0703 q 0,8.69531 -3.75,13.42969 -3.75,4.71094 -10.64063,4.71094 -6.91406,0 -10.66406,-4.71094 -3.75,-4.73438 -3.75,-13.42969 0,-8.71875 3.75,-13.42969 3.75,-4.73437 10.66406,-4.73437 6.89063,0 10.64063,4.73437 3.75,4.71094 3.75,13.42969 z m 16.125,10.82813 h 15.39844 v 6.63281 h -25.42969 v -6.63281 l 12.77344,-11.27344 q 1.71093,-1.54688 2.53125,-3.02344 0.82031,-1.47656 0.82031,-3.07031 0,-2.46094 -1.66406,-3.96094 -1.64063,-1.5 -4.38282,-1.5 -2.10937,0 -4.61718,0.91406 -2.50782,0.89063 -5.36719,2.67188 v -7.6875 q 3.04687,-1.00781 6.02344,-1.52344 2.97656,-0.53906 5.83593,-0.53906 6.28125,0 9.75,2.76562 3.49219,2.76563 3.49219,7.71094 0,2.85938 -1.47656,5.34375 -1.47656,2.46094 -6.21094,6.60938 z m 37.24219,-20.92969 -9.89063,14.64844 h 9.89063 z m -1.5,-7.42969 h 10.03125 v 22.07813 h 4.99218 v 6.53906 h -4.99218 v 6.375 h -8.53125 v -6.375 h -15.51563 v -7.73438 z"
       id="path2" /></g></g><polygon
   fill="param(fill) #000"
   fill-opacity="255"
   stroke="param(outline) #FFF"
   stroke-opacity="255"
   stroke-width="param(outline-width) 0"
   points="308.892,271.471 292.133,32.915 287.867,32.915   271.116,271.471 27.118,287.865 27.118,292.131 271.116,308.52 287.867,547.085 292.133,547.085 308.892,308.52 552.882,292.131   552.882,287.865 "
   id="polygon1" /><g
   inkscape:groupmode="layer"
   id="layer1"
   inkscape:label="Text"><text
     xml:space="preserve"
     style="font-size:37.3333px;fill:#800000;stroke:#ff0000"
     x="211.42776"
     y="215.65474"
     id="text3"
     inkscape:label="text3"><tspan
       sodipodi:role="line"
       id="tspan3"
       x="211.42776"
       y="215.65474"
       style="font-style:normal;font-variant:normal;font-weight:bold;font-stretch:normal;font-size:192px;font-family:'DejaVu Sans';-inkscape-font-specification:'DejaVu Sans Bold'">N</tspan></text></g><polygon
   fill="param(fill) #000"
   fill-opacity="1"
   stroke="param(outline) #FFF"
   stroke-opacity="1"
   stroke-width="param(outline-width) 0"
   points="27.118,292.131 271.116,308.52 287.867,547.085 292.133,547.085 308.892,308.52 552.882,292.131 552.882,287.865 308.892,271.471 292.133,32.915 287.867,32.915 271.116,271.471 27.118,287.865 "
   id="polygon8"
   transform="matrix(0.30155907,0.28048453,-0.32890449,0.28641645,297.93017,125.59929)" /></svg>
